<svg xmlns="http://www.w3.org/2000/svg" viewBox="0 0 77.02 100"><defs><style>.a{fill:#e0ca9a;}</style></defs><title>es_Logo_CMYK_gold</title><path class="a" d="M87,10H12.46a1.23,1.23,0,0,0-1.22,1.23V31.75a1.23,1.23,0,1,0,2.45,0V12.45H85.81V52.2H65.54V34a1.23,1.23,0,0,0-1.23-1.22H38.43a1.23,1.23,0,0,0,0,2.45H63.09V53.42a1.22,1.22,0,0,0,1.22,1.23H87a1.23,1.23,0,0,0,1.23-1.23V11.23A1.23,1.23,0,0,0,87,10Z" transform="translate(-11.24 -10)"/><path class="a" d="M87,63.69a1.22,1.22,0,0,0-1.22,1.22V84.22H13.69V44.47H34V62.63a1.23,1.23,0,0,0,1.22,1.23H61.06a1.23,1.23,0,1,0,0-2.45H36.41V43.24A1.23,1.23,0,0,0,35.18,42H12.46a1.22,1.22,0,0,0-1.22,1.22v42.2a1.23,1.23,0,0,0,1.22,1.23H87a1.23,1.23,0,0,0,1.23-1.23V64.91A1.23,1.23,0,0,0,87,63.69Z" transform="translate(-11.24 -10)"/><path class="a" d="M19.75,97.83A3.57,3.57,0,0,0,18.46,97a4.54,4.54,0,0,0-1.63-.29,4.73,4.73,0,0,0-1.92.37,4.21,4.21,0,0,0-1.45,1,4.58,4.58,0,0,0-.9,1.55,5.45,5.45,0,0,0-.32,1.92,6.73,6.73,0,0,0,.35,2.25,4.71,4.71,0,0,0,1,1.65,4.23,4.23,0,0,0,1.49,1,5,5,0,0,0,1.88.34,6.74,6.74,0,0,0,1.08-.09,5.42,5.42,0,0,0,1-.28,4.75,4.75,0,0,0,1-.47,3.27,3.27,0,0,0,.76-.67l-.48-.63a.39.39,0,0,0-.33-.17.8.8,0,0,0-.4.15c-.15.1-.34.21-.56.33a6.52,6.52,0,0,1-.81.32,3.77,3.77,0,0,1-1.13.15,3.4,3.4,0,0,1-1.26-.22,2.78,2.78,0,0,1-1-.69,3.54,3.54,0,0,1-.64-1.15,5.53,5.53,0,0,1-.25-1.63h6.54a.37.37,0,0,0,.33-.13,1.1,1.1,0,0,0,.09-.55,5.15,5.15,0,0,0-.31-1.86A3.7,3.7,0,0,0,19.75,97.83ZM14,100.68a3.35,3.35,0,0,1,.89-2,2.67,2.67,0,0,1,2-.72,2.62,2.62,0,0,1,1.05.2,2.23,2.23,0,0,1,.79.56,2.49,2.49,0,0,1,.48.86,3.59,3.59,0,0,1,.17,1.11Z" transform="translate(-11.24 -10)"/><path class="a" d="M28.5,101.93a3.64,3.64,0,0,0-.81-.49c-.31-.13-.62-.24-.94-.35l-.94-.3a5.06,5.06,0,0,1-.81-.33,1.91,1.91,0,0,1-.58-.43.91.91,0,0,1-.22-.63,1.16,1.16,0,0,1,.13-.56,1.47,1.47,0,0,1,.38-.45,1.79,1.79,0,0,1,.6-.31,2.67,2.67,0,0,1,.78-.11,3.25,3.25,0,0,1,.88.11,4.92,4.92,0,0,1,.63.24l.45.24a.75.75,0,0,0,.33.11.36.36,0,0,0,.36-.22l.39-.63A4.31,4.31,0,0,0,27.8,97a4.83,4.83,0,0,0-1.75-.3,4.26,4.26,0,0,0-1.48.23,3.37,3.37,0,0,0-1.1.63,2.62,2.62,0,0,0-.68.91,2.69,2.69,0,0,0-.23,1.08,2.32,2.32,0,0,0,.22,1.07,2.16,2.16,0,0,0,.58.75,3.33,3.33,0,0,0,.82.5,9.56,9.56,0,0,0,.94.35l.94.3a4.12,4.12,0,0,1,.82.33,1.91,1.91,0,0,1,.58.45,1.09,1.09,0,0,1,.22.68,1.44,1.44,0,0,1-.13.62,1.39,1.39,0,0,1-.37.51,1.93,1.93,0,0,1-.63.36,2.63,2.63,0,0,1-.88.13,3.06,3.06,0,0,1-1-.14,3.83,3.83,0,0,1-.67-.3l-.47-.3a.64.64,0,0,0-.37-.13.55.55,0,0,0-.28.06.59.59,0,0,0-.18.2l-.41.66a4.85,4.85,0,0,0,1.42.86,5,5,0,0,0,1.86.33,4.83,4.83,0,0,0,1.59-.24,3.35,3.35,0,0,0,1.17-.67,2.73,2.73,0,0,0,.71-1,3,3,0,0,0,.25-1.25,2.26,2.26,0,0,0-.22-1A2.24,2.24,0,0,0,28.5,101.93Z" transform="translate(-11.24 -10)"/><path class="a" d="M36.93,101.93a3.49,3.49,0,0,0-.82-.49c-.3-.13-.61-.24-.93-.35l-.94-.3a4.83,4.83,0,0,1-.82-.33,1.86,1.86,0,0,1-.57-.43.91.91,0,0,1-.22-.63,1.16,1.16,0,0,1,.13-.56,1.35,1.35,0,0,1,.38-.45,1.74,1.74,0,0,1,.59-.31,2.79,2.79,0,0,1,.79-.11,3.12,3.12,0,0,1,.87.11,4.57,4.57,0,0,1,.64.24l.45.24a.68.68,0,0,0,.33.11.38.38,0,0,0,.36-.22l.39-.63A4.35,4.35,0,0,0,36.22,97a4.74,4.74,0,0,0-1.74-.3,4.22,4.22,0,0,0-1.48.23,3.27,3.27,0,0,0-1.1.63,2.61,2.61,0,0,0-.91,2,2.46,2.46,0,0,0,.21,1.07,2.29,2.29,0,0,0,.58.75,3.74,3.74,0,0,0,.82.5c.31.13.62.25.94.35l1,.3a4.38,4.38,0,0,1,.82.33,1.75,1.75,0,0,1,.57.45,1,1,0,0,1,.22.68,1.59,1.59,0,0,1-.12.62,1.39,1.39,0,0,1-.37.51,1.93,1.93,0,0,1-.63.36,2.69,2.69,0,0,1-.89.13,3,3,0,0,1-1-.14,3.52,3.52,0,0,1-.67-.3c-.19-.11-.34-.21-.47-.3a.66.66,0,0,0-.37-.13.55.55,0,0,0-.28.06.61.61,0,0,0-.19.2l-.41.66a5,5,0,0,0,1.42.86,5.06,5.06,0,0,0,1.87.33,4.83,4.83,0,0,0,1.59-.24,3.22,3.22,0,0,0,1.16-.67,2.64,2.64,0,0,0,.72-1,3.2,3.2,0,0,0,.24-1.25,2.26,2.26,0,0,0-.21-1A2.24,2.24,0,0,0,36.93,101.93Z" transform="translate(-11.24 -10)"/><path class="a" d="M46.42,97.19l-.11.77a3.71,3.71,0,0,0-1.19-1,3.52,3.52,0,0,0-1.62-.34,4,4,0,0,0-1.79.39,3.87,3.87,0,0,0-1.33,1.08,4.75,4.75,0,0,0-.84,1.63,6.58,6.58,0,0,0-.29,2,8.33,8.33,0,0,0,.26,2.17,4.33,4.33,0,0,0,.75,1.57,3.18,3.18,0,0,0,1.17,1,3.66,3.66,0,0,0,1.54.32,3.7,3.7,0,0,0,1.81-.43,5.36,5.36,0,0,0,1.41-1.16V110h1.73V96.83h-1A.45.45,0,0,0,46.42,97.19Zm-.23,6.73A4.46,4.46,0,0,1,45,105a2.77,2.77,0,0,1-1.48.38,2.59,2.59,0,0,1-1.07-.2,1.94,1.94,0,0,1-.79-.64,3.27,3.27,0,0,1-.48-1.13,7.16,7.16,0,0,1-.17-1.65A4.57,4.57,0,0,1,41.77,99a2.48,2.48,0,0,1,2.12-1,3.05,3.05,0,0,1,1.26.26,2.87,2.87,0,0,1,1,.89Z" transform="translate(-11.24 -10)"/><path class="a" d="M57,104.08a4.27,4.27,0,0,1-1.23,1,3,3,0,0,1-1.43.36,1.9,1.9,0,0,1-1.55-.61,2.63,2.63,0,0,1-.51-1.73V96.83H50.59v6.27a5.24,5.24,0,0,0,.21,1.53,3.12,3.12,0,0,0,.62,1.17,2.83,2.83,0,0,0,1,.76,3.67,3.67,0,0,0,1.42.26,3.74,3.74,0,0,0,1.82-.43,5.57,5.57,0,0,0,1.44-1.14l.14,1.06a.44.44,0,0,0,.46.36h1V96.83H57Z" transform="translate(-11.24 -10)"/><path class="a" d="M68,97.69a3,3,0,0,0-1.08-.76,3.78,3.78,0,0,0-1.47-.27,5.44,5.44,0,0,0-2.09.39,5.54,5.54,0,0,0-1.75,1.17l.31.55a.66.66,0,0,0,.21.23.51.51,0,0,0,.3.09.75.75,0,0,0,.45-.16l.55-.36a3.74,3.74,0,0,1,.75-.35,3,3,0,0,1,1.06-.16,1.76,1.76,0,0,1,1.45.59,2.64,2.64,0,0,1,.49,1.74v.77a12.59,12.59,0,0,0-2.82.27,6.56,6.56,0,0,0-1.87.69,2.87,2.87,0,0,0-1,1,2.19,2.19,0,0,0-.32,1.12,2.81,2.81,0,0,0,.22,1.17,2.3,2.3,0,0,0,1.46,1.29,3.38,3.38,0,0,0,1.07.16,5.3,5.3,0,0,0,1-.09,4,4,0,0,0,.87-.29,4.49,4.49,0,0,0,.78-.47c.25-.18.5-.39.76-.62l.19.91a.42.42,0,0,0,.2.33,1,1,0,0,0,.41.08h.77v-6.29a4.9,4.9,0,0,0-.22-1.52A3.19,3.19,0,0,0,68,97.69Zm-.82,6.6a4.39,4.39,0,0,1-.6.55,3.31,3.31,0,0,1-.64.41,3.36,3.36,0,0,1-.71.27,3.61,3.61,0,0,1-.84.09,2.59,2.59,0,0,1-.63-.08,1.42,1.42,0,0,1-.5-.27,1.23,1.23,0,0,1-.34-.46,1.59,1.59,0,0,1-.13-.68,1.23,1.23,0,0,1,.24-.74,1.87,1.87,0,0,1,.76-.57,5.27,5.27,0,0,1,1.36-.4,11.7,11.7,0,0,1,2-.15Z" transform="translate(-11.24 -10)"/><path class="a" d="M76.09,96.66a2.71,2.71,0,0,0-1.74.58,4.47,4.47,0,0,0-1.25,1.6L73,97.31a.61.61,0,0,0-.14-.37.55.55,0,0,0-.39-.11h-1v9.84h1.73V100.4a4,4,0,0,1,1-1.52,2.24,2.24,0,0,1,1.51-.52,2.72,2.72,0,0,1,.79.09,1.58,1.58,0,0,0,.42.09.3.3,0,0,0,.3-.24L77.44,97a2.55,2.55,0,0,0-.61-.26A2.83,2.83,0,0,0,76.09,96.66Z" transform="translate(-11.24 -10)"/><path class="a" d="M86.1,97.83A3.57,3.57,0,0,0,84.81,97a4.54,4.54,0,0,0-1.63-.29,4.73,4.73,0,0,0-1.92.37,4.12,4.12,0,0,0-1.45,1,4.44,4.44,0,0,0-.91,1.55,5.69,5.69,0,0,0-.31,1.92,6.48,6.48,0,0,0,.35,2.25,4.56,4.56,0,0,0,1,1.65,4.15,4.15,0,0,0,1.49,1,5,5,0,0,0,1.88.34,6.53,6.53,0,0,0,1.07-.09,5.33,5.33,0,0,0,1.06-.28,4.43,4.43,0,0,0,1-.47,3.12,3.12,0,0,0,.77-.67l-.49-.63a.37.37,0,0,0-.33-.17.74.74,0,0,0-.39.15,6.3,6.3,0,0,1-.57.33,5.47,5.47,0,0,1-.81.32,3.66,3.66,0,0,1-1.12.15,3.33,3.33,0,0,1-1.26-.22,2.69,2.69,0,0,1-1-.69,3.37,3.37,0,0,1-.64-1.15,5.51,5.51,0,0,1-.26-1.63h6.55a.37.37,0,0,0,.33-.13,1.1,1.1,0,0,0,.09-.55A5.37,5.37,0,0,0,87,99.21,3.84,3.84,0,0,0,86.1,97.83Zm-5.75,2.85a3.42,3.42,0,0,1,.9-2,2.65,2.65,0,0,1,2-.72,2.69,2.69,0,0,1,1,.2,2.11,2.11,0,0,1,.78.56,2.36,2.36,0,0,1,.49.86,3.59,3.59,0,0,1,.16,1.11Z" transform="translate(-11.24 -10)"/></svg>